<svg width="44" height="44" viewBox="0 0 44 44" xmlns="http://www.w3.org/2000/svg">
    <g fill="none" fill-rule="evenodd">
        <path d="M8.8 8.8h26.4v26.4H8.8z"/>
        <path d="M32.998 2.948C42.166 8.24 46.264 19.314 42.75 29.3c-3.513 9.986-13.64 16.054-24.103 14.441C8.184 42.13.354 33.292.01 22.711L0 22l.011-.713A22 22 0 0 1 32.998 2.948zm-2.844 13.096a2.2 2.2 0 0 0-2.904-.183l-.207.183-7.244 7.242-2.844-2.842-.207-.183a2.2 2.2 0 0 0-3.087 3.086l.183.207 4.4 4.4.206.183a2.2 2.2 0 0 0 2.698 0l.206-.183 8.8-8.8.182-.206a2.2 2.2 0 0 0-.182-2.904z" fill="#1FA72A" fill-rule="nonzero"/>
    </g>
</svg>
